PathFileType	4	(X/Y/Z)	Walking02.trc	
DataRate	CameraRate	NumFrames	NumMarkers	Units	OrigDataRate	OrigDataStartFrame	OrigNumFrames	
100.00	100.00	12	19	mm	100.00	342	98	
Frame#	Time	RPSI			LPSI			RASI			LASI			RTHI			RKNE			RHFB			RTUB			RSHN			RANK			RLCA			RSTL			RPCA			RCPG			RHEE			RP5M			RP1M			RD5M			RTOE			
		X1	Y1	Z1	X2	Y2	Z2	X3	Y3	Z3	X4	Y4	Z4	X5	Y5	Z5	X6	Y6	Z6	X7	Y7	Z7	X8	Y8	Z8	X9	Y9	Z9	X10	Y10	Z10	X11	Y11	Z11	X12	Y12	Z12	X13	Y13	Z13	X14	Y14	Z14	X15	Y15	Z15	X16	Y16	Z16	X17	Y17	Z17	X18	Y18	Z18	X19	Y19	Z19	

25	0.240	-492.59265	930.07898	-17.49757	-495.91934	927.36670	-111.30786	-303.23022	887.98859	53.68356	-300.85358	874.37665	-180.03082	-377.43579	575.75800	83.00825	-373.78189	433.33435	51.66418	-382.10583	391.78949	49.16761	-323.16779	380.00000	-5.71377	-343.05865	307.56735	-14.39930	-453.74307	65.70610	7.90053	-467.01324	42.46292	0.66494	-455.35516	42.20436	-63.86455	-487.41086	67.68137	-36.71040	-513.23328	54.74995	-39.76985	-503.03894	29.29401	-41.14847	-377.27020	12.21925	37.15931	-350.37939	59.43003	-43.53362	-341.39001	14.53197	45.65405	-301.45544	34.06102	2.67141 
26	0.250	-479.10767	931.71521	-17.78089	-482.77777	928.78455	-111.55656	-290.21457	889.02972	53.98652	-287.54904	876.21594	-179.22450	-370.39594	575.83881	81.98947	-370.65640	433.50223	50.87620	-379.44830	391.95795	48.35893	-320.89404	379.40720	-7.29685	-341.64215	307.51105	-15.59089	-453.14932	65.84452	7.55059	-466.72577	43.01733	0.28794	-454.95160	42.64711	-64.25713	-486.88623	68.44090	-37.23788	-513.06476	55.37520	-40.33674	-498.11780	27.17262	-42.15874	-377.29474	12.46353	37.03571	-350.04468	59.36731	-43.76604	-341.33096	14.60357	45.54644	-301.85724	34.28462	3.29891 
27	0.260	-465.61118	932.93988	-18.24165	-469.46603	929.73846	-111.96916	-277.49802	889.46533	54.33081	-274.10623	877.56439	-178.71719	-363.62576	575.92480	80.95948	-367.55939	433.70654	50.01845	-376.69806	392.21872	47.58001	-318.68283	379.16010	-8.45700	-340.21790	307.41574	-16.56331	-452.10309	65.63349	7.19354	-466.34720	43.57822	-0.31204	-454.42508	43.14368	-64.69356	-486.47519	69.36720	-38.04946	-512.76123	56.25709	-40.77650	-496.76782	27.25148	-42.76590	-377.30103	12.77269	36.77302	-349.58310	59.38781	-43.99270	-341.23477	14.71027	45.41670	-301.96722	34.06425	3.27638 
28	0.270	-452.24857	933.66455	-18.84154	-456.13461	930.16577	-112.40759	-265.01651	889.24475	54.60695	-260.53351	878.47992	-178.54167	-357.08160	575.96655	79.92919	-364.42603	434.02744	49.11443	-374.07651	392.59824	46.77506	-316.26703	378.95352	-9.15981	-338.48383	307.41077	-17.20395	-451.87357	66.46175	6.72186	-466.06137	44.31275	-0.81445	-453.94553	43.62757	-65.31203	-486.24731	69.99332	-38.70471	-512.38049	57.12731	-41.44753	-496.15103	27.74140	-43.28166	-377.32291	13.15298	36.45232	-349.33932	59.38713	-44.22984	-341.22244	14.84872	45.28325	-302.08856	33.50894	2.96689 
29	0.280	-438.96802	933.90216	-19.48735	-442.72614	930.14178	-112.96647	-251.75589	888.86761	55.05117	-246.94234	878.74786	-178.76375	-350.41913	575.91028	78.88611	-361.33813	434.46631	48.24817	-371.63718	393.11203	45.96476	-313.58002	378.75485	-9.49108	-336.59906	307.39612	-17.56832	-452.22696	67.97427	6.09471	-465.97144	45.25699	-1.21772	-453.64993	44.29078	-66.13319	-485.78641	70.80641	-39.45425	-512.00891	58.05799	-42.29952	-495.75616	28.38870	-43.91100	-377.31760	13.61758	36.08309	-349.14795	59.39376	-44.51513	-341.32309	14.95938	45.11337	-302.04871	33.33986	2.84472 
30	0.290	-425.64667	933.50006	-20.13592	-429.18021	929.59650	-113.52980	-238.62701	887.77441	55.41055	-233.32384	878.50323	-179.21718	-343.64389	575.83618	77.84662	-358.37082	434.99619	47.47237	-369.28476	393.75381	45.21974	-311.24686	378.41135	-10.16151	-334.47717	307.40677	-17.80312	-452.14163	68.91979	5.43573	-465.85843	46.16241	-1.85155	-453.19476	45.03961	-66.90009	-485.26321	71.82104	-40.17606	-511.64407	59.09667	-43.11365	-495.44681	29.25715	-44.59806	-377.28275	14.13824	35.77150	-348.56003	59.39162	-44.95601	-341.39450	15.08392	44.92981	-301.99362	33.31004	2.78580 
31	0.300	-412.24673	932.40735	-20.79136	-415.51636	928.61664	-114.07602	-225.49297	886.20398	55.62166	-219.53835	877.70746	-179.68225	-336.58499	575.69971	76.98023	-355.22256	435.63510	46.84094	-366.84518	394.47241	44.52785	-308.55948	377.96588	-10.55108	-332.15396	307.43472	-18.05882	-451.57892	69.46902	4.64543	-465.65909	46.98963	-2.87696	-452.73236	46.06581	-67.76337	-484.79050	72.79819	-40.89751	-511.25009	60.29086	-43.99157	-495.13675	30.29303	-45.55030	-377.30374	14.73320	35.47772	-348.04697	59.54534	-45.27325	-341.49820	15.25213	44.65479	-301.95224	33.29571	2.68661 
32	0.310	-398.83365	930.77740	-21.52917	-401.89557	927.20203	-114.61448	-211.71550	884.48486	55.54859	-205.36034	876.41870	-180.23608	-329.21667	575.56488	76.32737	-351.84708	436.20697	46.26879	-364.17838	395.24164	43.69950	-305.53186	377.63477	-10.62768	-329.64590	307.44171	-18.39589	-450.58011	69.69524	3.66256	-465.28705	47.77909	-4.39094	-452.23456	47.33579	-68.83282	-484.16144	73.91239	-41.94905	-510.82797	61.52655	-45.24502	-494.79413	31.47715	-47.14140	-377.56573	15.37612	34.85202	-347.57083	59.76855	-45.66589	-341.76852	15.49953	44.24612	-301.96304	33.27823	2.53605 
33	0.320	-385.38416	928.66467	-22.28600	-388.48395	925.38129	-115.10190	-197.72978	882.55011	55.41680	-190.92210	874.88586	-180.78709	-321.48227	575.45508	75.90479	-347.95517	436.60855	45.55135	-361.18372	395.88428	42.63947	-302.50598	377.30081	-10.67242	-326.74878	307.36148	-18.84299	-450.10995	70.74844	2.38227	-465.11417	48.94882	-5.93202	-451.63379	48.63662	-70.05129	-483.45917	75.29591	-43.51726	-510.29562	63.01411	-47.26697	-494.48380	32.85823	-48.73516	-377.82730	15.91280	34.05385	-347.17041	59.90131	-46.19343	-342.18369	15.81756	43.72749	-302.02539	33.23353	2.32608 
34	0.330	-371.83188	926.15979	-23.08694	-374.69733	923.04401	-115.76009	-185.04564	879.95685	55.61674	-176.51105	873.05768	-181.02286	-313.56302	575.21832	75.43370	-343.15811	436.98636	44.77803	-357.44626	396.26047	41.60120	-298.58322	376.76108	-11.01756	-323.37238	307.18851	-19.48923	-449.72470	72.12847	1.07497	-465.01495	50.33802	-7.34452	-450.98077	50.06609	-71.19363	-482.83786	76.82342	-45.05717	-509.66068	65.04616	-49.13890	-494.22375	34.52033	-50.26738	-378.05942	16.36107	33.02182	-346.69702	60.12518	-46.67931	-342.64169	16.12618	43.22612	-302.10733	33.19412	2.07711 
35	0.340	-358.17920	923.43469	-24.14748	-359.94299	920.09698	-116.68571	-171.64197	877.32513	55.68535	-161.54118	871.01660	-181.15483	-305.35797	574.80151	74.98203	-337.56281	437.22940	43.96939	-352.77844	396.44220	40.62128	-293.95624	375.88632	-11.87068	-319.39096	306.97049	-20.20378	-449.35751	73.50492	-0.11350	-464.76697	51.70527	-8.56030	-450.35599	51.45079	-72.42331	-482.05707	78.43145	-46.50330	-509.08417	66.85574	-50.53807	-493.88345	36.22006	-51.81303	-378.08612	16.64368	31.97090	-346.12283	60.34153	-47.10934	-343.05136	16.38690	42.74610	-302.24710	33.34121	2.03265 
36	0.350	-344.42804	920.64996	-25.47931	-345.26459	916.92786	-117.79886	-158.06944	874.56427	55.95915	-146.17351	868.72852	-181.14041	-296.96924	574.15973	74.60690	-331.05682	437.08548	43.20893	-347.08221	396.38251	39.76789	-288.48593	374.84247	-12.70811	-314.92657	306.56342	-20.89885	-448.80438	74.84614	-1.09742	-464.39017	53.26112	-9.53214	-449.68991	52.79715	-73.38123	-481.26047	80.23217	-47.68198	-508.46100	68.85583	-51.77674	-493.56326	37.98431	-53.02869	-378.20026	16.81762	31.23665	-345.55551	60.52761	-47.43925	-343.43289	16.55579	42.30837	-302.46057	33.69572	2.26062 
